<?xml version="1.0" encoding="UTF-8"?>
 <!DOCTYPE svg PUBLIC "-//W3C//DTD SVG 1.1//EN"
   "http://www.w3.org/Graphics/SVG/1.1/DTD/svg11.dtd">
 <svg xmlns="http://www.w3.org/2000/svg" version="1.1"
   xmlns:xlink="http://www.w3.org/1999/xlink" width="180" height="180">
  <path d="M 141.91931,170.27164 89.849067,142.75686 37.663641,170.05 47.741154,112.02825 5.6552456,70.831787 63.953736,62.485595 90.128644,9.7291058 116.08157,62.595149 174.34446,71.186309 132.08577,112.20552 141.91931,170.27164 z" />
  <path d="M 114.0701,106.97938 108.19892,111.21 104.3513,116.10525 130.32437,112.45028 114.0701,106.97938 z" style="fill:#a3869b" />
  <path d="M 102.09233,102.95251 104.3513,116.10525 114.0701,106.97938 102.09233,102.95251 z" style="fill:#a8823e" />
  <path d="M 114.43194,105.87945 112.21882,98.99 112.02927,92.765958 130.75966,111.12709 114.43194,105.87945 z" style="fill:#bd9b72" />
  <path d="M 102.40281,102.00873 112.02927,92.765958 114.43194,105.87945 102.40281,102.00873 z" style="fill:#d2b568" />
  <path d="M 105.51455,77.832586 107.69819,84.73157 111.14651,89.916344 115.79062,64.101811 105.51455,77.832586 z" style="fill:#a88ba2" />
  <path d="M 97.946529,87.952231 111.14651,89.916344 105.51455,77.832586 97.946529,87.952231 z" style="fill:#9a757c" />
  <path d="M 104.58277,77.145153 97.346634,77.094591 91.375171,75.329814 114.66971,63.274846 104.58277,77.145153 z" style="fill:#e2ca7a" />
  <path d="M 97.147032,87.362393 91.375171,75.329814 104.58277,77.145153 97.147032,87.362393 z" style="fill:#a47a4e" />
  <path d="M 88.966854,124.18718 83.142523,119.89282 77.30392,117.72866 88.734487,141.33589 88.966854,124.18718 z" style="fill:#976e3e" />
  <path d="M 89.133674,111.55173 77.30392,117.72866 88.966854,124.18718 89.133674,111.55173 z" style="fill:#d2b869" />
  <path d="M 90.124752,124.19493 96.006079,119.97897 101.87314,117.89321 90.127409,141.34522 90.124752,124.19493 z" style="fill:#b39bb8" />
  <path d="M 90.127185,111.55838 101.87314,117.89321 90.124752,124.19493 90.127185,111.55838 z" style="fill:#c1a36b" />
  <path d="M 64.898561,105.67538 67.154854,98.799813 67.38345,92.577224 48.538241,110.8205 64.898561,105.67538 z" style="fill:#e3cd77" />
  <path d="M 76.95174,101.88021 67.38345,92.577224 64.898561,105.67538 76.95174,101.88021 z" style="fill:#bf9e7b" />
  <path d="M 65.253501,106.77757 71.098025,111.0444 74.914855,115.96423 48.965224,112.1464 65.253501,106.77757 z" style="fill:#8d6d75" />
  <path d="M 77.256289,102.82591 74.914855,115.96423 65.253501,106.77757 77.256289,102.82591 z" style="fill:#af9198" />
  <path d="M 75.092254,76.973624 82.328449,77.016841 88.32229,75.329595 65.185892,62.97374 75.092254,76.973624 z" style="fill:#bf9e61" />
  <path d="M 82.394973,87.286382 88.32229,75.329595 75.092254,76.973624 82.394973,87.286382 z" style="fill:#a88999" />
  <path d="M 74.151639,77.648926 71.878776,84.519042 68.363549,89.658701 64.054356,63.786111 74.151639,77.648926 z" style="fill:#b08746" />
  <path d="M 81.587897,87.865811 68.363549,89.658701 74.151639,77.648926 81.587897,87.865811 z" style="fill:#997780" />
  <path d="M 136.43377,84.298475 132.22957,97.219533 131.82973,108.90489 167.12957,74.560087 136.43377,84.298475 z" style="fill:#b7a2b6" />
  <path d="M 113.81921,91.481704 131.82973,108.90489 136.43377,84.298475 113.81921,91.481704 z" style="fill:#9c775b" />
  <path d="M 135.76209,82.230563 124.76755,74.246255 117.57737,65.026233 166.32155,72.072441 135.76209,82.230563 z" style="fill:#ccac62" />
  <path d="M 113.24288,89.707374 117.57737,65.026233 135.76209,82.230563 113.24288,89.707374 z" style="fill:#bf9b54" />
  <path d="M 91.143732,49.625161 102.10402,57.6564 113.07928,61.687654 91.484816,17.423454 91.143732,49.625161 z" style="fill:#b59887" />
  <path d="M 90.900663,73.351885 113.07928,61.687654 91.143732,49.625161 90.900663,73.351885 z" style="fill:#a07f92" />
  <path d="M 88.969486,49.61703 77.949435,57.566071 66.944333,61.515127 88.869252,17.413673 88.969486,49.61703 z" style="fill:#dabe6e" />
  <path d="M 89.035094,73.344908 66.944333,61.515127 88.969486,49.61703 89.035094,73.344908 z" style="fill:#997768" />
  <path d="M 117.48338,138.21338 103.89564,138.16651 92.648881,141.36308 136.15106,164.4543 117.48338,138.21338 z" style="fill:#8a625e" />
  <path d="M 103.72208,118.88351 92.648881,141.36308 117.48338,138.21338 103.72208,118.88351 z" style="fill:#c9a960" />
  <path d="M 119.2464,136.9409 123.48165,124.02998 130.05791,114.36249 138.27192,162.92353 119.2464,136.9409 z" style="fill:#b19291" />
  <path d="M 105.23479,117.79168 130.05791,114.36249 119.2464,136.9409 105.23479,117.79168 z" style="fill:#ccab61" />
  <path d="M 60.484291,136.85918 56.277214,123.93906 49.722058,114.25725 41.402126,162.80025 60.484291,136.85918 z" style="fill:#ccac5e" />
  <path d="M 74.537637,117.74058 49.722058,114.25725 60.484291,136.85918 74.537637,117.74058 z" style="fill:#c3a25a" />
  <path d="M 62.244523,138.13551 75.832341,138.11828 87.072097,141.33938 43.519639,164.33564 62.244523,138.13551 z" style="fill:#b39ab0" />
  <path d="M 76.047968,118.83571 87.072097,141.33938 62.244523,138.13551 76.047968,118.83571 z" style="fill:#ba9b86" />
  <path d="M 44.096137,82.065276 55.108129,74.105042 62.318475,64.900769 13.558954,71.840299 44.096137,82.065276 z" style="fill:#dbbf71" />
  <path d="M 66.598944,89.591352 62.318475,64.900769 44.096137,82.065276 66.598944,89.591352 z" style="fill:#b49791" />
  <path d="M 43.419928,84.131715 47.59585,97.06195 47.970119,108.74817 12.745492,74.326173 43.419928,84.131715 z" style="fill:#90694d" />
  <path d="M 66.018737,91.364418 47.970119,108.74817 43.419928,84.131715 66.018737,91.364418 z" style="fill:#a6879a" />
  <path d="M 96.252016,100.84837 94.629669,102.01725 93.566481,103.37007 100.74346,102.36012 96.252016,100.84837 z" style="fill:#a3869b" />
  <path d="M 92.942273,99.735652 93.566481,103.37007 96.252016,100.84837 92.942273,99.735652 z" style="fill:#a8823e" />
  <path d="M 96.352003,100.54444 95.740465,98.640676 95.688086,96.920863 100.86374,101.99449 96.352003,100.54444 z" style="fill:#bd9b72" />
  <path d="M 93.028064,99.474864 95.688086,96.920863 96.352003,100.54444 93.028064,99.474864 z" style="fill:#d2b568" />
  <path d="M 93.887906,92.794414 94.491298,94.700769 95.444152,96.133447 96.727431,89.000271 93.887906,92.794414 z" style="fill:#a88ba2" />
  <path d="M 91.796679,95.590715 95.444152,96.133447 93.887906,92.794414 91.796679,95.590715 z" style="fill:#9a757c" />
  <path d="M 93.630432,92.60446 91.630914,92.590488 89.980855,92.102838 96.417696,88.771761 93.630432,92.60446 z" style="fill:#e2ca7a" />
  <path d="M 91.575759,95.427728 89.980855,92.102838 93.630432,92.60446 91.575759,95.427728 z" style="fill:#a47a4e" />
  <path d="M 89.315374,105.6033 87.705972,104.41666 86.092626,103.81865 89.251166,110.3419 89.315374,105.6033 z" style="fill:#976e3e" />
  <path d="M 89.361471,102.11182 86.092626,103.81865 89.315374,105.6033 89.361471,102.11182 z" style="fill:#d2b869" />
  <path d="M 89.635329,105.60544 91.260481,104.44047 92.881692,103.86412 89.636063,110.34448 89.635329,105.60544 z" style="fill:#b39bb8" />
  <path d="M 89.636002,102.11366 92.881692,103.86412 89.635329,105.60544 89.636002,102.11366 z" style="fill:#c1a36b" />
  <path d="M 82.664735,100.48805 83.288203,98.588162 83.351369,96.868711 78.143986,101.90977 82.664735,100.48805 z" style="fill:#e3cd77" />
  <path d="M 85.995317,99.439348 83.351369,96.868711 82.664735,100.48805 85.995317,99.439348 z" style="fill:#bf9e7b" />
  <path d="M 82.762813,100.79261 84.377795,101.97164 85.432477,103.3311 78.261972,102.27614 82.762813,100.79261 z" style="fill:#8d6d75" />
  <path d="M 86.079472,99.700669 85.432477,103.3311 82.762813,100.79261 86.079472,99.700669 z" style="fill:#af9198" />
  <path d="M 85.481494,92.557061 87.481029,92.569002 89.137271,92.102776 82.744129,88.688557 85.481494,92.557061 z" style="fill:#bf9e61" />
  <path d="M 87.499411,95.406723 89.137271,92.102776 85.481494,92.557061 87.499411,95.406723 z" style="fill:#a88999" />
  <path d="M 85.22158,92.743663 84.593533,94.64204 83.622192,96.062252 82.431458,88.913034 85.22158,92.743663 z" style="fill:#b08746" />
  <path d="M 87.276397,95.566833 83.622192,96.062252 85.22158,92.743663 87.276397,95.566833 z" style="fill:#997780" />
  <path d="M 102.43163,94.581091 101.26991,98.151489 101.15942,101.38044 110.91361,91.890141 102.43163,94.581091 z" style="fill:#b7a2b6" />
  <path d="M 96.182681,96.56599 101.15942,101.38044 102.43163,94.581091 96.182681,96.56599 z" style="fill:#9c775b" />
  <path d="M 102.24603,94.009677 99.207971,91.803421 97.221151,89.255708 110.69034,91.202744 102.24603,94.009677 z" style="fill:#ccac62" />
  <path d="M 96.023429,96.075699 97.221151,89.255708 102.24603,94.009677 96.023429,96.075699 z" style="fill:#bf9b54" />
  <path d="M 89.916906,85.000023 92.945498,87.219246 95.978225,88.333179 90.011156,76.101918 89.916906,85.000023 z" style="fill:#b59887" />
  <path d="M 89.84974,91.556286 95.978225,88.333179 89.916906,85.000023 89.84974,91.556286 z" style="fill:#a07f92" />
  <path d="M 89.31611,84.997776 86.271005,87.194287 83.230031,88.285506 89.288413,76.099215 89.31611,84.997776 z" style="fill:#dabe6e" />
  <path d="M 89.334239,91.554358 83.230031,88.285506 89.31611,84.997776 89.334239,91.554358 z" style="fill:#997768" />
  <path d="M 97.195182,109.47908 93.440561,109.46613 90.332812,110.34941 102.35351,116.73007 97.195182,109.47908 z" style="fill:#8a625e" />
  <path d="M 93.392602,104.13777 90.332812,110.34941 97.195182,109.47908 93.392602,104.13777 z" style="fill:#c9a960" />
  <path d="M 97.682344,109.12746 98.852646,105.55986 100.66983,102.88851 102.93955,116.30709 97.682344,109.12746 z" style="fill:#b19291" />
  <path d="M 93.810602,103.83607 100.66983,102.88851 97.682344,109.12746 93.810602,103.83607 z" style="fill:#ccab61" />
  <path d="M 81.444965,109.10488 80.282449,105.53474 78.471102,102.85942 76.172105,116.27302 81.444965,109.10488 z" style="fill:#ccac5e" />
  <path d="M 85.328242,103.82195 78.471102,102.85942 81.444965,109.10488 85.328242,103.82195 z" style="fill:#c3a25a" />
  <path d="M 81.931359,109.45756 85.686,109.4528 88.791814,110.34287 76.757225,116.69729 81.931359,109.45756 z" style="fill:#b39ab0" />
  <path d="M 85.745583,104.12456 88.791814,110.34287 81.931359,109.45756 85.745583,104.12456 z" style="fill:#ba9b86" />
  <path d="M 76.916525,93.964008 79.959402,91.764404 81.951794,89.221042 68.478368,91.138601 76.916525,93.964008 z" style="fill:#dbbf71" />
  <path d="M 83.13459,96.043643 81.951794,89.221042 76.916525,93.964008 83.13459,96.043643 z" style="fill:#b49791" />
  <path d="M 76.729672,94.535014 77.883579,98.107949 77.986999,101.33713 68.253589,91.825508 76.729672,94.535014 z" style="fill:#90694d" />
  <path d="M 82.974265,96.533584 77.986999,101.33713 76.729672,94.535014 82.974265,96.533584 z" style="fill:#a6879a" />
  <path d="M 91.330619,99.143532 90.894848,99.457498 90.60927,99.820874 92.537045,99.549594 91.330619,99.143532 z" style="fill:#a3869b" />
  <path d="M 90.441604,98.84465 90.60927,99.820874 91.330619,99.143532 90.441604,98.84465 z" style="fill:#a8823e" />
  <path d="M 91.357476,99.061893 91.193214,98.550533 91.179144,98.088582 92.569354,99.451384 91.357476,99.061893 z" style="fill:#bd9b72" />
  <path d="M 90.464648,98.774601 91.179144,98.088582 91.357476,99.061893 90.464648,98.774601 z" style="fill:#d2b568" />
  <path d="M 90.695612,96.980195 90.857686,97.492252 91.113628,97.877077 91.458323,95.961068 90.695612,96.980195 z" style="fill:#a88ba2" />
  <path d="M 90.133897,97.731296 91.113628,97.877077 90.695612,96.980195 90.133897,97.731296 z" style="fill:#9a757c" />
  <path d="M 90.626453,96.929172 90.089372,96.925419 89.646157,96.794434 91.375127,95.899689 90.626453,96.929172 z" style="fill:#e2ca7a" />
  <path d="M 90.074557,97.687517 89.646157,96.794434 90.626453,96.929172 90.074557,97.687517 z" style="fill:#a47a4e" />
  <path d="M 89.467403,100.42073 89.035109,100.10199 88.601756,99.941366 89.450156,101.69354 89.467403,100.42073 z" style="fill:#976e3e" />
  <path d="M 89.479785,99.482901 88.601756,99.941366 89.467403,100.42073 89.479785,99.482901 z" style="fill:#d2b869" />
  <path d="M 89.553345,100.42131 89.989869,100.10839 90.425335,99.953579 89.553542,101.69424 89.553345,100.42131 z" style="fill:#b39bb8" />
  <path d="M 89.553525,99.483395 90.425335,99.953579 89.553345,100.42131 89.553525,99.483395 z" style="fill:#c1a36b" />
  <path d="M 87.681006,99.046747 87.848473,98.536428 87.86544,98.074574 86.466709,99.428628 87.681006,99.046747 z" style="fill:#e3cd77" />
  <path d="M 88.575619,98.765061 87.86544,98.074574 87.681006,99.046747 88.575619,98.765061 z" style="fill:#bf9e7b" />
  <path d="M 87.707351,99.128553 88.141144,99.445247 88.424437,99.810406 86.498401,99.527039 87.707351,99.128553 z" style="fill:#8d6d75" />
  <path d="M 88.598223,98.835253 88.424437,99.810406 87.707351,99.128553 88.598223,98.835253 z" style="fill:#af9198" />
  <path d="M 88.437603,96.916441 88.974688,96.919648 89.419564,96.794417 87.702332,95.87734 88.437603,96.916441 z" style="fill:#bf9e61" />
  <path d="M 88.979626,97.681875 89.419564,96.794417 88.437603,96.916441 88.979626,97.681875 z" style="fill:#a88999" />
  <path d="M 88.367788,96.966563 88.199092,97.476477 87.938184,97.857954 87.618347,95.937636 88.367788,96.966563 z" style="fill:#b08746" />
  <path d="M 88.919723,97.724882 87.938184,97.857954 88.367788,96.966563 88.919723,97.724882 z" style="fill:#997780" />
  <path d="M 92.990501,97.460115 92.678456,98.419143 92.648779,99.286455 95.268807,96.737312 92.990501,97.460115 z" style="fill:#b7a2b6" />
  <path d="M 91.312,97.99327 92.648779,99.286455 92.990501,97.460115 91.312,97.99327 z" style="fill:#9c775b" />
  <path d="M 92.940647,97.306631 92.124609,96.714019 91.590939,96.029689 95.208834,96.552673 92.940647,97.306631 z" style="fill:#ccac62" />
  <path d="M 91.269224,97.861575 91.590939,96.029689 92.940647,97.306631 91.269224,97.861575 z" style="fill:#bf9b54" />
  <path d="M 89.628978,94.886587 90.442474,95.482683 91.257081,95.781891 89.654294,92.496509 89.628978,94.886587 z" style="fill:#b59887" />
  <path d="M 89.610937,96.647634 91.257081,95.781891 89.628978,94.886587 89.610937,96.647634 z" style="fill:#a07f92" />
  <path d="M 89.467601,94.885984 88.64967,95.475978 87.832848,95.769085 89.460161,92.495783 89.467601,94.885984 z" style="fill:#dabe6e" />
  <path d="M 89.472471,96.647117 87.832848,95.769085 89.467601,94.885984 89.472471,96.647117 z" style="fill:#997768" />
  <path d="M 91.583965,101.46179 90.575454,101.45831 89.740696,101.69557 92.969519,103.40945 91.583965,101.46179 z" style="fill:#8a625e" />
  <path d="M 90.562572,100.02709 89.740696,101.69557 91.583965,101.46179 90.562572,100.02709 z" style="fill:#c9a960" />
  <path d="M 91.714819,101.36734 92.029169,100.40907 92.517273,99.691527 93.126934,103.29583 91.714819,101.36734 z" style="fill:#b19291" />
  <path d="M 90.674849,99.946048 92.517273,99.691527 91.714819,101.36734 90.674849,99.946048 z" style="fill:#ccab61" />
  <path d="M 87.353371,101.36128 87.041113,100.40232 86.554575,99.683713 85.937052,103.28668 87.353371,101.36128 z" style="fill:#ccac5e" />
  <path d="M 88.39644,99.942253 86.554575,99.683713 87.353371,101.36128 88.39644,99.942253 z" style="fill:#c3a25a" />
  <path d="M 87.484019,101.45601 88.492535,101.45473 89.326774,101.69381 86.094219,103.40064 87.484019,101.45601 z" style="fill:#b39ab0" />
  <path d="M 88.50854,100.02354 89.326774,101.69381 87.484019,101.45601 88.50854,100.02354 z" style="fill:#ba9b86" />
  <path d="M 86.137006,97.294361 86.954339,96.703535 87.489506,96.020375 83.870472,96.535441 86.137006,97.294361 z" style="fill:#dbbf71" />
  <path d="M 87.807211,97.852962 87.489506,96.020375 86.137006,97.294361 87.807211,97.852962 z" style="fill:#b49791" />
  <path d="M 86.086816,97.447736 86.396762,98.407445 86.424541,99.274821 83.810095,96.719948 86.086816,97.447736 z" style="fill:#90694d" />
  <path d="M 87.764147,97.984562 86.424541,99.274821 86.086816,97.447736 87.764147,97.984562 z" style="fill:#a6879a" />
  <path d="M 90.018981,98.676433 89.899613,98.762436 89.821386,98.861973 90.349452,98.787663 90.018981,98.676433 z" style="fill:#a3869b" />
  <path d="M 89.775458,98.594561 89.821386,98.861973 90.018981,98.676433 89.775458,98.594561 z" style="fill:#a8823e" />
  <path d="M 90.026338,98.65407 89.981343,98.513995 89.977489,98.387455 90.358302,98.760761 90.026338,98.65407 z" style="fill:#bd9b72" />
  <path d="M 89.78177,98.575373 89.977489,98.387455 90.026338,98.65407 89.78177,98.575373 z" style="fill:#d2b568" />
  <path d="M 89.845036,98.083845 89.889432,98.22411 89.95954,98.329523 90.053962,97.80468 89.845036,98.083845 z" style="fill:#a88ba2" />
  <path d="M 89.691168,98.28959 89.95954,98.329523 89.845036,98.083845 89.691168,98.28959 z" style="fill:#9a757c" />
  <path d="M 89.826091,98.069868 89.678971,98.06884 89.557564,98.03296 90.031172,97.787867 89.826091,98.069868 z" style="fill:#e2ca7a" />
  <path d="M 89.674913,98.277598 89.557564,98.03296 89.826091,98.069868 89.674913,98.277598 z" style="fill:#a47a4e" />
  <path d="M 89.508602,99.026294 89.390186,98.938985 89.271479,98.894984 89.503878,99.37495 89.508602,99.026294 z" style="fill:#976e3e" />
  <path d="M 89.511994,98.769399 89.271479,98.894984 89.508602,99.026294 89.511994,98.769399 z" style="fill:#d2b869" />
  <path d="M 89.532144,99.026452 89.651719,98.940736 89.771004,98.89833 89.532198,99.37514 89.532144,99.026452 z" style="fill:#b39bb8" />
  <path d="M 89.532193,98.769535 89.771004,98.89833 89.532144,99.026452 89.532193,98.769535 z" style="fill:#c1a36b" />
  <path d="M 89.019261,98.649918 89.065134,98.510128 89.069782,98.383615 88.686634,98.754525 89.019261,98.649918 z" style="fill:#e3cd77" />
  <path d="M 89.264318,98.572757 89.069782,98.383615 89.019261,98.649918 89.264318,98.572757 z" style="fill:#bf9e7b" />
  <path d="M 89.026477,98.672327 89.145304,98.759077 89.222905,98.859103 88.695315,98.781482 89.026477,98.672327 z" style="fill:#8d6d75" />
  <path d="M 89.27051,98.591984 89.222905,98.859103 89.026477,98.672327 89.27051,98.591984 z" style="fill:#af9198" />
  <path d="M 89.226514,98.066379 89.373635,98.067257 89.495497,98.032954 89.025104,97.781743 89.226514,98.066379 z" style="fill:#bf9e61" />
  <path d="M 89.374987,98.276051 89.495497,98.032954 89.226514,98.066379 89.374987,98.276051 z" style="fill:#a88999" />
  <path d="M 89.20739,98.080109 89.161179,98.219787 89.08971,98.324283 89.002099,97.79826 89.20739,98.080109 z" style="fill:#b08746" />
  <path d="M 89.358578,98.287831 89.08971,98.324283 89.20739,98.080109 89.358578,98.287831 z" style="fill:#997780" />
  <path d="M 90.473671,98.215305 90.388194,98.478007 90.380065,98.715585 91.097757,98.017311 90.473671,98.215305 z" style="fill:#b7a2b6" />
  <path d="M 90.013888,98.361349 90.380065,98.715585 90.473671,98.215305 90.013888,98.361349 z" style="fill:#9c775b" />
  <path d="M 90.460015,98.173261 90.236482,98.01093 90.090296,97.823475 91.081329,97.966734 90.460015,98.173261 z" style="fill:#ccac62" />
  <path d="M 90.00217,98.325275 90.090296,97.823475 90.460015,98.173261 90.00217,98.325275 z" style="fill:#bf9b54" />
  <path d="M 89.552867,97.51035 89.775704,97.673636 89.998845,97.755596 89.559801,96.855647 89.552867,97.51035 z" style="fill:#b59887" />
  <path d="M 89.547925,97.992745 89.998845,97.755596 89.552867,97.51035 89.547925,97.992745 z" style="fill:#a07f92" />
  <path d="M 89.508661,97.510185 89.284609,97.671799 89.060861,97.752089 89.506624,96.855448 89.508661,97.510185 z" style="fill:#dabe6e" />
  <path d="M 89.509995,97.992604 89.060861,97.752089 89.508661,97.510185 89.509995,97.992604 z" style="fill:#997768" />
  <path d="M 90.088392,99.311468 89.812135,99.310515 89.583474,99.375505 90.46793,99.84498 90.088392,99.311468 z" style="fill:#8a625e" />
  <path d="M 89.808606,98.918466 89.583474,99.375505 90.088392,99.311468 89.808606,98.918466 z" style="fill:#c9a960" />
  <path d="M 90.124236,99.285597 90.210344,99.023101 90.344048,98.826548 90.51105,99.813858 90.124236,99.285597 z" style="fill:#b19291" />
  <path d="M 89.839362,98.896268 90.344048,98.826548 90.124236,99.285597 89.839362,98.896268 z" style="fill:#ccab61" />
  <path d="M 88.929522,99.283932 88.843986,99.021249 88.710711,98.824405 88.541556,99.811348 88.929522,99.283932 z" style="fill:#ccac5e" />
  <path d="M 89.215245,98.895226 88.710711,98.824405 88.929522,99.283932 89.215245,98.895226 z" style="fill:#c3a25a" />
  <path d="M 88.965309,99.309882 89.241567,99.309532 89.470086,99.375021 88.584608,99.842565 88.965309,99.309882 z" style="fill:#b39ab0" />
  <path d="M 89.245952,98.917492 89.470086,99.375021 88.965309,99.309882 89.245952,98.917492 z" style="fill:#ba9b86" />
  <path d="M 88.596328,98.169901 88.820216,98.008059 88.966812,97.820924 87.975467,97.962013 88.596328,98.169901 z" style="fill:#dbbf71" />
  <path d="M 89.053839,98.322916 88.966812,97.820924 88.596328,98.169901 89.053839,98.322916 z" style="fill:#b49791" />
  <path d="M 88.582579,98.211914 88.667481,98.474803 88.675091,98.712399 87.958928,98.012554 88.582579,98.211914 z" style="fill:#90694d" />
  <path d="M 89.042043,98.358964 88.675091,98.712399 88.582579,98.211914 89.042043,98.358964 z" style="fill:#a6879a" />
  <path d="M 89.658884,98.549444 89.62581,98.573273 89.604136,98.600852 89.750448,98.580263 89.658884,98.549444 z" style="fill:#a3869b" />
  <path d="M 89.591411,98.526759 89.604136,98.600852 89.658884,98.549444 89.591411,98.526759 z" style="fill:#a8823e" />
  <path d="M 89.660923,98.543247 89.648456,98.504437 89.647388,98.469376 89.7529,98.572809 89.660923,98.543247 z" style="fill:#bd9b72" />
  <path d="M 89.59316,98.521443 89.647388,98.469376 89.660923,98.543247 89.59316,98.521443 z" style="fill:#d2b568" />
  <path d="M 89.610686,98.385254 89.622987,98.424117 89.642412,98.453324 89.668574,98.307905 89.610686,98.385254 z" style="fill:#a88ba2" />
  <path d="M 89.568054,98.44226 89.642412,98.453324 89.610686,98.385254 89.568054,98.44226 z" style="fill:#9a757c" />
  <path d="M 89.605437,98.381381 89.564675,98.381096 89.531036,98.371155 89.66226,98.303247 89.605437,98.381381 z" style="fill:#e2ca7a" />
  <path d="M 89.56355,98.438937 89.531036,98.371155 89.605437,98.381381 89.56355,98.438937 z" style="fill:#a47a4e" />
  <path d="M 89.517471,98.64638 89.484661,98.622189 89.451771,98.609998 89.516162,98.742983 89.517471,98.64638 z" style="fill:#976e3e" />
  <path d="M 89.518411,98.575202 89.451771,98.609998 89.517471,98.64638 89.518411,98.575202 z" style="fill:#d2b869" />
  <path d="M 89.523994,98.646424 89.557124,98.622675 89.590175,98.610925 89.524008,98.743036 89.523994,98.646424 z" style="fill:#b39bb8" />
  <path d="M 89.524007,98.575239 89.590175,98.610925 89.523994,98.646424 89.524007,98.575239 z" style="fill:#c1a36b" />
  <path d="M 89.381888,98.542102 89.394598,98.50337 89.395886,98.468317 89.289726,98.571086 89.381888,98.542102 z" style="fill:#e3cd77" />
  <path d="M 89.449787,98.520723 89.395886,98.468317 89.381888,98.542102 89.449787,98.520723 z" style="fill:#bf9e7b" />
  <path d="M 89.383888,98.548311 89.416811,98.572347 89.438312,98.600062 89.292132,98.578555 89.383888,98.548311 z" style="fill:#8d6d75" />
  <path d="M 89.451502,98.52605 89.438312,98.600062 89.383888,98.548311 89.451502,98.52605 z" style="fill:#af9198" />
  <path d="M 89.439312,98.380415 89.480075,98.380658 89.51384,98.371153 89.383507,98.30155 89.439312,98.380415 z" style="fill:#bf9e61" />
  <path d="M 89.48045,98.438509 89.51384,98.371153 89.439312,98.380415 89.48045,98.438509 z" style="fill:#a88999" />
  <path d="M 89.434014,98.384219 89.42121,98.42292 89.401408,98.451873 89.377133,98.306126 89.434014,98.384219 z" style="fill:#b08746" />
  <path d="M 89.475904,98.441773 89.401408,98.451873 89.434014,98.384219 89.475904,98.441773 z" style="fill:#997780" />
  <path d="M 89.784865,98.421668 89.761182,98.494456 89.758929,98.560282 89.957782,98.366809 89.784865,98.421668 z" style="fill:#b7a2b6" />
  <path d="M 89.657472,98.462133 89.758929,98.560282 89.784865,98.421668 89.657472,98.462133 z" style="fill:#9c775b" />
  <path d="M 89.781081,98.410019 89.719146,98.365042 89.678642,98.313103 89.95323,98.352796 89.781081,98.410019 z" style="fill:#ccac62" />
  <path d="M 89.654225,98.452138 89.678642,98.313103 89.781081,98.410019 89.654225,98.452138 z" style="fill:#bf9b54" />
  <path d="M 89.529736,98.226349 89.591478,98.271591 89.653304,98.2943 89.531657,98.044949 89.529736,98.226349 z" style="fill:#b59887" />
  <path d="M 89.528366,98.360008 89.653304,98.2943 89.529736,98.226349 89.528366,98.360008 z" style="fill:#a07f92" />
  <path d="M 89.517488,98.226303 89.455409,98.271082 89.393414,98.293328 89.516923,98.044894 89.517488,98.226303 z" style="fill:#dabe6e" />
  <path d="M 89.517857,98.359968 89.393414,98.293328 89.517488,98.226303 89.517857,98.359968 z" style="fill:#997768" />
  <path d="M 89.678113,98.725388 89.60157,98.725124 89.538215,98.743131 89.783273,98.873209 89.678113,98.725388 z" style="fill:#8a625e" />
  <path d="M 89.600593,98.616498 89.538215,98.743131 89.678113,98.725388 89.600593,98.616498 z" style="fill:#c9a960" />
  <path d="M 89.688045,98.71822 89.711903,98.645489 89.748949,98.59103 89.79522,98.864586 89.688045,98.71822 z" style="fill:#b19291" />
  <path d="M 89.609114,98.610348 89.748949,98.59103 89.688045,98.71822 89.609114,98.610348 z" style="fill:#ccab61" />
  <path d="M 89.357018,98.717761 89.333319,98.644979 89.296392,98.590439 89.249524,98.863894 89.357018,98.717761 z" style="fill:#ccac5e" />
  <path d="M 89.436184,98.610062 89.296392,98.590439 89.357018,98.717761 89.436184,98.610062 z" style="fill:#c3a25a" />
  <path d="M 89.366934,98.724951 89.443478,98.724854 89.506794,98.742999 89.261453,98.872543 89.366934,98.724951 z" style="fill:#b39ab0" />
  <path d="M 89.444692,98.616231 89.506794,98.742999 89.366934,98.724951 89.444692,98.616231 z" style="fill:#ba9b86" />
  <path d="M 89.264703,98.409092 89.326736,98.36425 89.367353,98.3124 89.092679,98.351492 89.264703,98.409092 z" style="fill:#dbbf71" />
  <path d="M 89.391467,98.451488 89.367353,98.3124 89.264703,98.409092 89.391467,98.451488 z" style="fill:#b49791" />
  <path d="M 89.260894,98.420732 89.284418,98.493571 89.286526,98.559403 89.088097,98.365495 89.260894,98.420732 z" style="fill:#90694d" />
  <path d="M 89.388198,98.461476 89.286526,98.559403 89.260894,98.420732 89.388198,98.461476 z" style="fill:#a6879a" />
 </svg>