<?xml version="1.0" encoding="UTF-8"?>
<svg xmlns="http://www.w3.org/2000/svg" xmlns:xlink="http://www.w3.org/1999/xlink" width="32px" height="33px" viewBox="0 0 32 33" version="1.1">
<g id="surface1">
<path style="fill:none;stroke-width:2;stroke-linecap:butt;stroke-linejoin:miter;stroke:rgb(43.921569%,62.745098%,77.254902%);stroke-opacity:1;stroke-miterlimit:4;" d="M 139.565579 11.984168 L 138.823198 36.154072 " transform="matrix(0.326231,0,0,0.323233,-33.804057,-3.459611)"/>
<path style="fill:none;stroke-width:2;stroke-linecap:butt;stroke-linejoin:miter;stroke:rgb(55.294118%,69.803922%,80.392157%);stroke-opacity:1;stroke-miterlimit:4;" d="M 126.657739 35.199361 C 126.705635 35.078511 126.75353 34.957662 126.801426 34.824727 " transform="matrix(0.326231,0,0,0.323233,-33.804057,-3.459611)"/>
<path style="fill:none;stroke-width:2;stroke-linecap:butt;stroke-linejoin:miter;stroke:rgb(38.039216%,59.607843%,75.686275%);stroke-opacity:1;stroke-miterlimit:4;" d="M 126.801426 34.824727 C 125.196926 29.797387 124.705997 24.334989 125.328639 18.437532 " transform="matrix(0.326231,0,0,0.323233,-33.804057,-3.459611)"/>
<path style="fill:none;stroke-width:2;stroke-linecap:butt;stroke-linejoin:miter;stroke:rgb(70.980392%,81.960784%,92.54902%);stroke-opacity:1;stroke-miterlimit:4;" d="M 141.457451 92.506203 L 131.555055 95.636205 " transform="matrix(0.326231,0,0,0.323233,-33.804057,-3.459611)"/>
<path style="fill:none;stroke-width:2;stroke-linecap:butt;stroke-linejoin:miter;stroke:rgb(45.098039%,64.313725%,75.686275%);stroke-opacity:1;stroke-miterlimit:4;" d="M 131.555055 95.636205 L 122.814125 95.805394 " transform="matrix(0.326231,0,0,0.323233,-33.804057,-3.459611)"/>
<path style="fill:none;stroke-width:2;stroke-linecap:butt;stroke-linejoin:miter;stroke:rgb(70.980392%,81.960784%,92.54902%);stroke-opacity:1;stroke-miterlimit:4;" d="M 126.801426 34.824727 C 124.610206 36.492451 122.64649 38.244769 120.910278 40.105851 C 117.964705 43.260024 116.156649 45.157361 115.474138 45.785779 C 111.798158 49.314585 108.170073 53.08509 104.625806 57.109378 " transform="matrix(0.326231,0,0,0.323233,-33.804057,-3.459611)"/>
<path style="fill:none;stroke-width:2;stroke-linecap:butt;stroke-linejoin:miter;stroke:rgb(33.72549%,57.254902%,72.54902%);stroke-opacity:1;stroke-miterlimit:4;" d="M 193.915006 39.779557 C 193.364208 45.084851 191.867473 49.592538 189.44875 53.314704 " transform="matrix(0.326231,0,0,0.323233,-33.804057,-3.459611)"/>
<path style="fill:none;stroke-width:2;stroke-linecap:butt;stroke-linejoin:miter;stroke:rgb(27.843137%,54.117647%,70.980392%);stroke-opacity:1;stroke-miterlimit:4;" d="M 160.004987 111.515832 C 160.172621 111.286218 160.172621 111.117028 160.004987 110.996179 C 159.897222 110.923669 159.777483 110.887414 159.64577 110.875329 C 159.478136 110.875329 159.334449 110.814905 159.214711 110.718225 C 157.837715 109.58224 156.352954 108.567104 154.748455 107.672817 C 153.299615 106.85104 151.946567 105.944669 150.665363 104.953703 C 150.37799 104.724089 150.054695 104.615324 149.695479 104.639494 C 149.539818 104.651579 149.396132 104.651579 149.240471 104.615324 C 148.941124 104.5549 148.677699 104.43405 148.462169 104.264861 C 147.552155 103.503509 146.486479 102.875091 145.289092 102.379608 C 144.630529 102.101654 143.971965 101.739106 143.301428 101.255708 C 142.559048 100.72397 141.804694 100.192232 141.062313 99.672579 C 140.595332 99.3342 140.128351 98.971652 139.637422 98.572848 C 139.038728 98.06528 138.164635 97.581882 137.015143 97.110569 C 134.560498 96.107518 132.740469 95.62412 131.555055 95.636205 " transform="matrix(0.326231,0,0,0.323233,-33.804057,-3.459611)"/>
<path style="fill:none;stroke-width:2;stroke-linecap:butt;stroke-linejoin:miter;stroke:rgb(17.647059%,46.27451%,63.529412%);stroke-opacity:1;stroke-miterlimit:4;" d="M 197.112031 85.509015 C 195.962539 82.427353 194.848969 79.502794 193.783293 76.73534 C 193.244469 75.333486 192.801436 73.907462 192.478141 72.445182 C 192.059055 70.572015 191.687865 69.145991 191.36457 68.155024 C 190.143235 64.372435 189.041638 60.372315 188.047806 56.142582 " transform="matrix(0.326231,0,0,0.323233,-33.804057,-3.459611)"/>
<path style="fill:none;stroke-width:2;stroke-linecap:butt;stroke-linejoin:miter;stroke:rgb(43.529412%,63.921569%,80.392157%);stroke-opacity:1;stroke-miterlimit:4;" d="M 188.957821 95.249487 C 188.6465 94.294775 188.143597 93.448829 187.461086 92.711647 C 187.245557 92.469948 187.10187 92.191994 187.053975 91.8657 C 186.934236 91.116433 186.802523 90.367166 186.634889 89.629984 C 186.491202 89.001566 186.227777 88.264384 185.856587 87.454693 C 185.353684 86.342877 184.910651 85.206892 184.53946 84.034651 C 184.264061 83.188705 183.916819 82.366928 183.497733 81.593491 C 183.042726 80.747544 182.767327 79.853258 182.647588 78.898547 C 182.336267 76.336537 181.174801 73.919547 180.27676 71.514641 C 179.977413 70.704949 179.845701 69.834833 179.893596 68.904292 C 179.90557 68.420893 179.797805 68.010005 179.570302 67.695796 C 179.258981 67.284908 178.827921 67.115719 178.265149 67.176143 " transform="matrix(0.326231,0,0,0.323233,-33.804057,-3.459611)"/>
<path style=" stroke:none;fill-rule:nonzero;fill:rgb(22.352941%,47.45098%,63.137255%);fill-opacity:1;" d="M 11.726562 0.414062 L 11.484375 8.226562 L 7.515625 7.917969 C 7.53125 7.878906 7.546875 7.839844 7.5625 7.796875 C 7.039062 6.171875 6.878906 4.40625 7.082031 2.5 C 7.996094 0.933594 9.542969 0.238281 11.726562 0.414062 Z M 11.726562 0.414062 "/>
<path style=" stroke:none;fill-rule:nonzero;fill:rgb(65.490196%,78.039216%,91.372549%);fill-opacity:1;" d="M 11.726562 0.414062 C 14.898438 0.664062 18.175781 1.316406 21.570312 2.378906 C 24.328125 3.242188 27.382812 4.632812 28.738281 7.058594 C 29.027344 7.578125 29.269531 8.359375 29.457031 9.398438 C 29.277344 11.113281 28.789062 12.570312 28 13.773438 C 26.589844 12.90625 25.242188 12.21875 23.957031 11.707031 C 19.917969 10.097656 15.761719 8.9375 11.484375 8.226562 Z M 11.726562 0.414062 "/>
<path style=" stroke:none;fill-rule:nonzero;fill:rgb(53.72549%,71.764706%,87.843137%);fill-opacity:1;" d="M 7.082031 2.5 C 6.878906 4.40625 7.039062 6.171875 7.5625 7.796875 C 6.847656 8.335938 6.207031 8.902344 5.640625 9.503906 C 4.679688 10.523438 4.089844 11.136719 3.867188 11.339844 C 2.667969 12.480469 1.484375 13.699219 0.328125 15 C -0.199219 12.917969 0.121094 11.164062 1.292969 9.738281 C 3.234375 7.367188 5.167969 4.957031 7.082031 2.5 Z M 7.082031 2.5 "/>
<path style=" stroke:none;fill-rule:nonzero;fill:rgb(87.843137%,92.156863%,97.254902%);fill-opacity:1;" d="M 7.5625 7.796875 C 7.546875 7.839844 7.53125 7.878906 7.515625 7.917969 L 12.34375 26.441406 L 9.113281 27.453125 L 6.261719 27.507812 C 4.820312 26.976562 3.710938 26.09375 2.933594 24.871094 C 2.519531 24.222656 2.121094 23.34375 1.730469 22.242188 C 1.125 20.507812 0.65625 18.09375 0.328125 15 C 1.484375 13.699219 2.667969 12.480469 3.867188 11.339844 C 4.089844 11.136719 4.679688 10.523438 5.640625 9.503906 C 6.207031 8.902344 6.847656 8.335938 7.5625 7.796875 Z M 7.5625 7.796875 "/>
<path style=" stroke:none;fill-rule:nonzero;fill:rgb(1.960784%,36.470588%,53.72549%);fill-opacity:1;" d="M 29.457031 9.398438 C 30.5625 13.367188 31.347656 16.351562 31.820312 18.359375 C 32.289062 20.351562 31.847656 22.289062 30.5 24.179688 C 30.125 23.183594 29.761719 22.238281 29.414062 21.34375 C 29.238281 20.890625 29.09375 20.429688 28.988281 19.957031 C 28.851562 19.351562 28.730469 18.890625 28.625 18.570312 C 28.226562 17.347656 27.867188 16.054688 27.542969 14.6875 L 28 13.773438 C 28.789062 12.570312 29.277344 11.113281 29.457031 9.398438 Z M 29.457031 9.398438 "/>
<path style=" stroke:none;fill-rule:nonzero;fill:rgb(32.941176%,55.686275%,72.941176%);fill-opacity:1;" d="M 27.542969 14.6875 C 27.867188 16.054688 28.226562 17.347656 28.625 18.570312 C 28.730469 18.890625 28.851562 19.351562 28.988281 19.957031 C 29.09375 20.429688 29.238281 20.890625 29.414062 21.34375 C 29.761719 22.238281 30.125 23.183594 30.5 24.179688 C 29.804688 25.289062 28.917969 26.335938 27.839844 27.328125 C 27.738281 27.019531 27.574219 26.746094 27.351562 26.507812 C 27.28125 26.429688 27.234375 26.339844 27.21875 26.234375 C 27.179688 25.992188 27.136719 25.75 27.082031 25.511719 C 27.035156 25.308594 26.949219 25.070312 26.828125 24.808594 C 26.664062 24.449219 26.519531 24.082031 26.398438 23.703125 C 26.308594 23.429688 26.195312 23.164062 26.058594 22.914062 C 25.910156 22.640625 25.820312 22.351562 25.78125 22.042969 C 25.679688 21.214844 25.300781 20.433594 25.007812 19.65625 C 24.910156 19.394531 24.867188 19.113281 24.882812 18.8125 C 24.886719 18.65625 24.851562 18.523438 24.777344 18.421875 C 24.675781 18.289062 24.535156 18.234375 24.351562 18.253906 Z M 27.542969 14.6875 "/>
<path style=" stroke:none;fill-rule:nonzero;fill:rgb(53.72549%,71.764706%,87.843137%);fill-opacity:1;" d="M 24.351562 18.253906 C 24.535156 18.234375 24.675781 18.289062 24.777344 18.421875 C 24.851562 18.523438 24.886719 18.65625 24.882812 18.8125 C 24.867188 19.113281 24.910156 19.394531 25.007812 19.65625 C 25.300781 20.433594 25.679688 21.214844 25.78125 22.042969 C 25.820312 22.351562 25.910156 22.640625 26.058594 22.914062 C 26.195312 23.164062 26.308594 23.429688 26.398438 23.703125 C 26.519531 24.082031 26.664062 24.449219 26.828125 24.808594 C 26.949219 25.070312 27.035156 25.308594 27.082031 25.511719 C 27.136719 25.75 27.179688 25.992188 27.21875 26.234375 C 27.234375 26.339844 27.28125 26.429688 27.351562 26.507812 C 27.574219 26.746094 27.738281 27.019531 27.839844 27.328125 C 25.367188 29.832031 21.9375 32.324219 18.394531 32.585938 C 18.449219 32.511719 18.449219 32.457031 18.394531 32.417969 C 18.359375 32.394531 18.320312 32.382812 18.277344 32.378906 C 18.222656 32.378906 18.175781 32.359375 18.136719 32.328125 C 17.6875 31.960938 17.203125 31.632812 16.679688 31.34375 C 16.207031 31.078125 15.765625 30.785156 15.347656 30.464844 C 15.253906 30.390625 15.148438 30.355469 15.03125 30.363281 C 14.980469 30.367188 14.933594 30.367188 14.882812 30.355469 C 14.785156 30.335938 14.699219 30.296875 14.628906 30.242188 C 14.332031 29.996094 13.984375 29.792969 13.59375 29.632812 C 13.378906 29.542969 13.164062 29.425781 12.945312 29.269531 C 12.703125 29.097656 12.457031 28.925781 12.214844 28.757812 C 12.0625 28.648438 11.910156 28.53125 11.75 28.402344 C 11.554688 28.238281 11.269531 28.082031 10.894531 27.929688 C 10.09375 27.605469 9.5 27.449219 9.113281 27.453125 L 12.34375 26.441406 C 16.730469 24.285156 20.730469 21.554688 24.351562 18.253906 Z M 24.351562 18.253906 "/>
<path style=" stroke:none;fill-rule:nonzero;fill:rgb(1.960784%,36.470588%,53.72549%);fill-opacity:1;" d="M 9.113281 27.453125 C 9.5 27.449219 10.09375 27.605469 10.894531 27.929688 C 11.269531 28.082031 11.554688 28.238281 11.75 28.402344 C 11.910156 28.53125 12.0625 28.648438 12.214844 28.757812 C 12.457031 28.925781 12.703125 29.097656 12.945312 29.269531 C 13.164062 29.425781 13.378906 29.542969 13.59375 29.632812 C 13.984375 29.792969 14.332031 29.996094 14.628906 30.242188 C 14.699219 30.296875 14.785156 30.335938 14.882812 30.355469 C 14.933594 30.367188 14.980469 30.367188 15.03125 30.363281 C 15.148438 30.355469 15.253906 30.390625 15.347656 30.464844 C 15.765625 30.785156 16.207031 31.078125 16.679688 31.34375 C 17.203125 31.632812 17.6875 31.960938 18.136719 32.328125 C 18.175781 32.359375 18.222656 32.378906 18.277344 32.378906 C 18.320312 32.382812 18.359375 32.394531 18.394531 32.417969 C 18.449219 32.457031 18.449219 32.511719 18.394531 32.585938 C 17.121094 32.589844 15.953125 32.34375 14.886719 31.847656 C 12.503906 30.742188 9.628906 29.296875 6.261719 27.507812 Z M 9.113281 27.453125 "/>
</g>
</svg>
