<?xml version="1.0" encoding="UTF-8"?>
<svg xmlns="http://www.w3.org/2000/svg" xmlns:xlink="http://www.w3.org/1999/xlink" width="32px" height="31px" viewBox="0 0 31 31" version="1.1">
<g id="surface1">
<path style=" stroke:none;fill-rule:nonzero;fill:rgb(0%,0%,0%);fill-opacity:1;" d="M 7.683594 4 L 1.25 7.804688 L 1.210938 11.652344 C 1.183594 13.773438 1.164062 17.234375 1.164062 19.339844 L 1.164062 23.175781 L 7.554688 27.011719 C 11.070312 29.121094 13.984375 30.839844 14.039062 30.839844 C 14.097656 30.839844 17.027344 29.140625 20.558594 27.050781 L 26.976562 23.261719 L 26.976562 7.902344 L 20.753906 4.167969 C 17.335938 2.113281 14.4375 0.378906 14.328125 0.320312 L 14.121094 0.207031 Z M 20.15625 4.816406 C 23.296875 6.695312 25.921875 8.285156 26 8.335938 C 26.136719 8.429688 25.871094 8.597656 20.136719 11.984375 L 14.136719 15.527344 L 14.097656 18.253906 C 14.078125 19.75 14.050781 22.976562 14.042969 25.425781 C 14.042969 27.878906 14.023438 29.878906 14.011719 29.878906 C 13.992188 29.878906 11.296875 28.265625 8.007812 26.285156 L 2.039062 22.695312 L 2.023438 18.902344 C 2.011719 16.8125 2.03125 13.578125 2.058594 11.703125 L 2.101562 8.308594 L 8.113281 4.753906 C 13.902344 1.339844 14.128906 1.214844 14.289062 1.300781 C 14.378906 1.347656 17.019531 2.929688 20.15625 4.816406 Z M 20.15625 4.816406 "/>
</g>
</svg>
